<svg xmlns="http://www.w3.org/2000/svg" width="100" height="100" viewBox="0 0 100 100">
  <defs>
    <style>
      .cls-1 {
        fill: #fff;
        fill-rule: evenodd;
      }
    </style>
  </defs>
  <path id="Forma_2" data-name="Forma 2" class="cls-1" d="M27.926,9.84H98.936v0.266L76.064,90.16H5.053V89.894Zm31.117,8.245c-5.3.024-20.51,2.944-23.67,16.755A12.81,12.81,0,0,0,37.5,45.213c4.611,5.967,19.851,5.164,21.846,13.152C61.478,66.9,47.272,72.724,39.628,69.947c-2.58-.937-4.19-2.906-5.851-4.787l-9.309,4.787C26.153,77.1,38.548,80.858,48.4,78.989c10-1.9,25.1-9.934,22.074-23.67-2.632-11.961-21.073-8.191-25.266-18.085C43.173,30.1,53.65,24.918,61.436,26.6c3.329,0.717,5.057,2.662,7.181,4.521l9.308-3.989C74.28,20.293,68.326,17.927,59.043,18.085Z"/>
</svg>
